<?xml version="1.0" encoding="iso-8859-1"?>
<!-- Generator: Adobe Illustrator 16.0.0, SVG Export Plug-In . SVG Version: 6.00 Build 0)  -->
<!DOCTYPE svg PUBLIC "-//W3C//DTD SVG 1.1//EN" "http://www.w3.org/Graphics/SVG/1.1/DTD/svg11.dtd">
<svg version="1.1" id="Capa_1" xmlns="http://www.w3.org/2000/svg" xmlns:xlink="http://www.w3.org/1999/xlink" x="0px" y="0px"
	 width="36.863px" height="36.863px" viewBox="0 0 36.863 36.863" style="enable-background:new 0 0 36.863 36.863;"
	 xml:space="preserve">
<g>
	<path d="M5.134,30.463c0-1.326,0.698-2.086,1.979-2.086c1.281,0,1.979,0.76,1.979,2.086v4.314c0,1.324-0.698,2.086-1.979,2.086
		c-1.279,0-1.979-0.762-1.979-2.086V30.463z M6.438,34.859c0,0.597,0.262,0.818,0.676,0.818s0.676-0.225,0.676-0.818v-4.479
		c0-0.592-0.262-0.816-0.676-0.816s-0.676,0.226-0.676,0.816V34.859z M11.098,30.76v6.008H9.926v-8.297h1.636l1.337,4.967v-4.967
		h1.162v8.297h-1.339L11.098,30.76z M16.837,28.471h1.304v7.111h2.146v1.186h-3.446L16.837,28.471L16.837,28.471z M20.858,28.471
		h1.304v8.297h-1.304V28.471z M24.271,30.76v6.008H23.1v-8.297h1.635l1.34,4.967v-4.967h1.159v8.297h-1.338L24.271,30.76z
		 M29.477,31.967h1.79v1.187h-1.79v2.432h2.253v1.187h-3.556v-8.297h3.556v1.188h-2.253V31.967z M28.937,11.196h-0.532
		c-1.33-3.994-5.297-6.898-9.973-6.898c-4.674,0-8.643,2.904-9.973,6.898H7.925c-1.104,0-2.007,0.9-2.007,2.009v2.338
		c0,1.104,0.902,2.007,2.007,2.007h0.478c1.913,7.402,9.733,9.482,9.821,9.508l0.204,0.051l0.201-0.049
		c0.091-0.021,7.94-2.021,9.84-9.51h0.468c1.106,0,2.009-0.9,2.009-2.007v-2.339C30.945,12.097,30.043,11.196,28.937,11.196z
		 M25.188,20.717h-5.265c-0.255-0.463-0.746-0.777-1.313-0.777c-0.826,0-1.496,0.67-1.496,1.496c0,0.828,0.67,1.496,1.496,1.496
		c0.658,0,1.218-0.426,1.417-1.018h4.163c-2.218,2.309-4.975,3.232-5.757,3.459c-1.366-0.408-8.776-3.004-8.776-11.24
		c0-0.138,0.004-0.271,0.014-0.406c2.269-0.426,4.923-1.139,5.822-2.229c0,0,0.358,2.034-0.959,2.872c0,0,4.67-0.717,5.51-2.152
		c0,0,0.164,3.723,7.08,3.312C26.899,17.668,26.154,19.37,25.188,20.717z M32.967,12.416C32.679,5.304,26.527,0,18.432,0
		C10.333,0,4.185,5.302,3.896,12.416c-0.582,0.269-0.971,0.8-0.971,1.425v1.062c0,0.902,0.809,1.609,1.841,1.609h0.802v-1.078
		v-2.125v-0.687C5.748,6.359,11.215,1.677,18.432,1.677c7.221,0,12.689,4.688,12.863,10.955v0.678v2.125v1.076h0.802
		c1.032,0,1.841-0.705,1.841-1.607v-1.062C33.938,13.216,33.549,12.684,32.967,12.416z"/>
</g>
<g>
</g>
<g>
</g>
<g>
</g>
<g>
</g>
<g>
</g>
<g>
</g>
<g>
</g>
<g>
</g>
<g>
</g>
<g>
</g>
<g>
</g>
<g>
</g>
<g>
</g>
<g>
</g>
<g>
</g>
</svg>
