<?xml version="1.0" standalone="no"?><svg xmlns="http://www.w3.org/2000/svg" viewBox="0 0 1440 320"><path fill="#00cba9" fill-opacity="1" d="M0,128L6.7,138.7C13.3,149,27,171,40,176C53.3,181,67,171,80,154.7C93.3,139,107,117,120,106.7C133.3,96,147,96,160,133.3C173.3,171,187,245,200,256C213.3,267,227,213,240,208C253.3,203,267,245,280,245.3C293.3,245,307,203,320,181.3C333.3,160,347,160,360,154.7C373.3,149,387,139,400,154.7C413.3,171,427,213,440,213.3C453.3,213,467,171,480,181.3C493.3,192,507,256,520,261.3C533.3,267,547,213,560,197.3C573.3,181,587,203,600,192C613.3,181,627,139,640,154.7C653.3,171,667,245,680,277.3C693.3,309,707,299,720,261.3C733.3,224,747,160,760,112C773.3,64,787,32,800,32C813.3,32,827,64,840,69.3C853.3,75,867,53,880,85.3C893.3,117,907,203,920,218.7C933.3,235,947,181,960,149.3C973.3,117,987,107,1000,90.7C1013.3,75,1027,53,1040,64C1053.3,75,1067,117,1080,144C1093.3,171,1107,181,1120,186.7C1133.3,192,1147,192,1160,197.3C1173.3,203,1187,213,1200,213.3C1213.3,213,1227,203,1240,202.7C1253.3,203,1267,213,1280,224C1293.3,235,1307,245,1320,240C1333.3,235,1347,213,1360,181.3C1373.3,149,1387,107,1400,117.3C1413.3,128,1427,192,1433,224L1440,256L1440,320L1433.3,320C1426.7,320,1413,320,1400,320C1386.7,320,1373,320,1360,320C1346.7,320,1333,320,1320,320C1306.7,320,1293,320,1280,320C1266.7,320,1253,320,1240,320C1226.7,320,1213,320,1200,320C1186.7,320,1173,320,1160,320C1146.7,320,1133,320,1120,320C1106.7,320,1093,320,1080,320C1066.7,320,1053,320,1040,320C1026.7,320,1013,320,1000,320C986.7,320,973,320,960,320C946.7,320,933,320,920,320C906.7,320,893,320,880,320C866.7,320,853,320,840,320C826.7,320,813,320,800,320C786.7,320,773,320,760,320C746.7,320,733,320,720,320C706.7,320,693,320,680,320C666.7,320,653,320,640,320C626.7,320,613,320,600,320C586.7,320,573,320,560,320C546.7,320,533,320,520,320C506.7,320,493,320,480,320C466.7,320,453,320,440,320C426.7,320,413,320,400,320C386.7,320,373,320,360,320C346.7,320,333,320,320,320C306.7,320,293,320,280,320C266.7,320,253,320,240,320C226.7,320,213,320,200,320C186.7,320,173,320,160,320C146.7,320,133,320,120,320C106.7,320,93,320,80,320C66.7,320,53,320,40,320C26.7,320,13,320,7,320L0,320Z"></path></svg>